<svg width="750" height="350" viewBox="0 0 750 350" fill="none" xmlns="http://www.w3.org/2000/svg">
<rect width="750" height="350" rx="5" fill="#90FFF2"/>
<path d="M295.297 157.469V169.703H267.125V157.469H295.297ZM320.938 162.578L308.375 159.625L312.5 124.75H352.391V137.031H325.391L323.844 150.578C324.594 150.141 325.859 149.625 327.641 149.031C329.453 148.406 331.453 148.094 333.641 148.094C337.016 148.094 340 148.609 342.594 149.641C345.219 150.641 347.438 152.125 349.25 154.094C351.062 156.031 352.422 158.422 353.328 161.266C354.266 164.109 354.734 167.359 354.734 171.016C354.734 173.953 354.25 176.797 353.281 179.547C352.344 182.266 350.891 184.719 348.922 186.906C346.984 189.062 344.531 190.781 341.562 192.062C338.594 193.312 335.078 193.938 331.016 193.938C327.984 193.938 325.031 193.469 322.156 192.531C319.281 191.594 316.688 190.25 314.375 188.5C312.094 186.719 310.281 184.578 308.938 182.078C307.625 179.547 306.984 176.719 307.016 173.594H322.906C323 175.25 323.391 176.688 324.078 177.906C324.766 179.125 325.688 180.078 326.844 180.766C328.031 181.422 329.391 181.75 330.922 181.75C332.484 181.75 333.781 181.438 334.812 180.812C335.844 180.188 336.656 179.328 337.25 178.234C337.844 177.141 338.266 175.891 338.516 174.484C338.766 173.047 338.891 171.531 338.891 169.938C338.891 168.25 338.703 166.734 338.328 165.391C337.984 164.047 337.422 162.906 336.641 161.969C335.859 161 334.844 160.266 333.594 159.766C332.375 159.266 330.906 159.016 329.188 159.016C326.906 159.016 325.109 159.406 323.797 160.188C322.484 160.969 321.531 161.766 320.938 162.578ZM410.516 152.641V165.109C410.516 170.016 409.938 174.281 408.781 177.906C407.656 181.531 406.031 184.531 403.906 186.906C401.812 189.281 399.312 191.047 396.406 192.203C393.5 193.359 390.297 193.938 386.797 193.938C383.984 193.938 381.359 193.578 378.922 192.859C376.484 192.109 374.281 190.984 372.312 189.484C370.375 187.953 368.703 186.047 367.297 183.766C365.891 181.484 364.812 178.797 364.062 175.703C363.312 172.578 362.938 169.047 362.938 165.109V152.641C362.938 147.703 363.5 143.438 364.625 139.844C365.781 136.219 367.422 133.219 369.547 130.844C371.672 128.469 374.188 126.703 377.094 125.547C380 124.391 383.203 123.812 386.703 123.812C389.516 123.812 392.125 124.188 394.531 124.938C396.969 125.656 399.172 126.781 401.141 128.312C403.109 129.812 404.781 131.703 406.156 133.984C407.562 136.266 408.641 138.969 409.391 142.094C410.141 145.188 410.516 148.703 410.516 152.641ZM394.719 167.031V150.625C394.719 148.438 394.594 146.531 394.344 144.906C394.125 143.281 393.781 141.906 393.312 140.781C392.875 139.656 392.328 138.75 391.672 138.062C391.016 137.344 390.266 136.828 389.422 136.516C388.609 136.172 387.703 136 386.703 136C385.453 136 384.328 136.266 383.328 136.797C382.359 137.297 381.531 138.109 380.844 139.234C380.156 140.359 379.625 141.859 379.25 143.734C378.906 145.609 378.734 147.906 378.734 150.625V167.031C378.734 169.25 378.844 171.188 379.062 172.844C379.312 174.469 379.656 175.859 380.094 177.016C380.562 178.141 381.125 179.062 381.781 179.781C382.438 180.469 383.188 180.969 384.031 181.281C384.875 181.594 385.797 181.75 386.797 181.75C388.016 181.75 389.109 181.5 390.078 181C391.047 180.5 391.875 179.688 392.562 178.562C393.281 177.406 393.812 175.891 394.156 174.016C394.531 172.109 394.719 169.781 394.719 167.031ZM418.859 141.484V137.875C418.859 135.281 419.422 132.922 420.547 130.797C421.672 128.672 423.359 126.969 425.609 125.688C427.859 124.406 430.656 123.766 434 123.766C437.438 123.766 440.281 124.406 442.531 125.688C444.781 126.969 446.453 128.672 447.547 130.797C448.672 132.922 449.234 135.281 449.234 137.875V141.484C449.234 144.016 448.672 146.344 447.547 148.469C446.453 150.594 444.781 152.297 442.531 153.578C440.312 154.859 437.516 155.5 434.141 155.5C430.734 155.5 427.906 154.859 425.656 153.578C423.406 152.297 421.703 150.594 420.547 148.469C419.422 146.344 418.859 144.016 418.859 141.484ZM428.984 137.875V141.484C428.984 142.422 429.172 143.312 429.547 144.156C429.922 145 430.484 145.688 431.234 146.219C432.016 146.719 432.969 146.969 434.094 146.969C435.25 146.969 436.188 146.719 436.906 146.219C437.625 145.688 438.156 145 438.5 144.156C438.875 143.312 439.062 142.422 439.062 141.484V137.875C439.062 136.875 438.875 135.953 438.5 135.109C438.156 134.266 437.609 133.594 436.859 133.094C436.109 132.562 435.156 132.297 434 132.297C432.906 132.297 431.984 132.562 431.234 133.094C430.484 133.594 429.922 134.266 429.547 135.109C429.172 135.953 428.984 136.875 428.984 137.875ZM451.25 179.875V176.266C451.25 173.703 451.812 171.359 452.938 169.234C454.094 167.109 455.797 165.406 458.047 164.125C460.328 162.844 463.141 162.203 466.484 162.203C469.922 162.203 472.75 162.844 474.969 164.125C477.219 165.406 478.891 167.109 479.984 169.234C481.109 171.359 481.672 173.703 481.672 176.266V179.875C481.672 182.438 481.109 184.781 479.984 186.906C478.891 189.031 477.234 190.734 475.016 192.016C472.797 193.297 470 193.938 466.625 193.938C463.219 193.938 460.375 193.297 458.094 192.016C455.812 190.734 454.094 189.031 452.938 186.906C451.812 184.781 451.25 182.438 451.25 179.875ZM461.422 176.266V179.875C461.422 180.844 461.656 181.75 462.125 182.594C462.594 183.438 463.219 184.125 464 184.656C464.781 185.156 465.641 185.406 466.578 185.406C468.016 185.406 469.078 185.156 469.766 184.656C470.484 184.125 470.953 183.438 471.172 182.594C471.422 181.75 471.547 180.844 471.547 179.875V176.266C471.547 175.297 471.359 174.391 470.984 173.547C470.609 172.703 470.047 172.031 469.297 171.531C468.547 171 467.609 170.734 466.484 170.734C465.359 170.734 464.422 171 463.672 171.531C462.922 172.031 462.359 172.703 461.984 173.547C461.609 174.391 461.422 175.297 461.422 176.266ZM470.422 134.547L437.094 187.891L429.734 184.188L463.062 130.844L470.422 134.547Z" fill="#263238"/>
<path d="M216.547 226.719C216.975 226.719 217.34 226.641 217.641 226.486C217.951 226.322 218.183 226.094 218.338 225.803C218.502 225.502 218.579 225.142 218.57 224.723H222.904C222.913 225.835 222.64 226.81 222.084 227.648C221.537 228.478 220.79 229.125 219.842 229.59C218.903 230.046 217.841 230.273 216.656 230.273C215.499 230.273 214.487 230.087 213.621 229.713C212.755 229.33 212.031 228.801 211.447 228.127C210.873 227.443 210.44 226.646 210.148 225.734C209.866 224.823 209.725 223.834 209.725 222.768V222.453C209.725 221.387 209.866 220.398 210.148 219.486C210.44 218.566 210.873 217.768 211.447 217.094C212.031 216.41 212.751 215.882 213.607 215.508C214.473 215.125 215.48 214.934 216.629 214.934C217.859 214.934 218.944 215.166 219.883 215.631C220.831 216.096 221.574 216.77 222.111 217.654C222.649 218.538 222.913 219.609 222.904 220.867H218.57C218.579 220.421 218.511 220.02 218.365 219.664C218.219 219.309 217.992 219.026 217.682 218.816C217.381 218.598 216.993 218.488 216.52 218.488C216.046 218.488 215.663 218.593 215.371 218.803C215.079 219.012 214.856 219.304 214.701 219.678C214.555 220.042 214.455 220.462 214.4 220.936C214.355 221.41 214.332 221.915 214.332 222.453V222.768C214.332 223.314 214.355 223.829 214.4 224.312C214.455 224.786 214.56 225.206 214.715 225.57C214.87 225.926 215.093 226.208 215.385 226.418C215.676 226.618 216.064 226.719 216.547 226.719ZM229.795 215.207V230H225.188V215.207H229.795ZM239.379 215.207L233.309 224.832H229.18L228.66 220.525H231.135L233.473 215.207H239.379ZM233.568 230L230.793 223.971L235.072 222.043L239.816 230H233.568ZM245.463 223.793L249.537 215.207H254.145V230H249.537V221.387L245.463 230H240.842V215.207H245.463V223.793ZM259.354 215.207H263.961L263.893 219.869C263.865 221.546 263.669 222.986 263.305 224.189C262.949 225.383 262.466 226.382 261.855 227.184C261.245 227.977 260.543 228.601 259.75 229.057C258.966 229.503 258.137 229.818 257.262 230H256.77L256.674 226.5L257.029 226.445C257.576 225.898 258 225.379 258.301 224.887C258.611 224.385 258.829 223.884 258.957 223.383C259.094 222.882 259.18 222.348 259.217 221.783C259.253 221.209 259.276 220.571 259.285 219.869L259.354 215.207ZM260.639 215.207H270.865V230H266.271V218.762H260.639V215.207ZM255.717 226.445H273.08V234.484H268.473V230H260.447V234.484H255.717V226.445ZM279.342 215.207V230H274.734V215.207H279.342ZM288.926 215.207L282.855 224.832H278.727L278.207 220.525H280.682L283.02 215.207H288.926ZM283.115 230L280.34 223.971L284.619 222.043L289.363 230H283.115ZM295.01 223.793L299.084 215.207H303.691V230H299.084V221.387L295.01 230H290.389V215.207H295.01V223.793ZM323.393 220.977V224.518H316.01V220.977H323.393ZM317.691 215.207V230H313.084V215.207H317.691ZM326.346 215.207V230H321.725V215.207H326.346ZM328.314 222.754V222.467C328.314 221.382 328.469 220.384 328.779 219.473C329.089 218.552 329.545 217.755 330.146 217.08C330.748 216.406 331.491 215.882 332.375 215.508C333.259 215.125 334.28 214.934 335.438 214.934C336.604 214.934 337.63 215.125 338.514 215.508C339.407 215.882 340.154 216.406 340.756 217.08C341.357 217.755 341.813 218.552 342.123 219.473C342.433 220.384 342.588 221.382 342.588 222.467V222.754C342.588 223.829 342.433 224.827 342.123 225.748C341.813 226.66 341.357 227.457 340.756 228.141C340.154 228.815 339.411 229.339 338.527 229.713C337.643 230.087 336.622 230.273 335.465 230.273C334.307 230.273 333.282 230.087 332.389 229.713C331.495 229.339 330.748 228.815 330.146 228.141C329.545 227.457 329.089 226.66 328.779 225.748C328.469 224.827 328.314 223.829 328.314 222.754ZM332.922 222.467V222.754C332.922 223.31 332.963 223.829 333.045 224.312C333.127 224.796 333.264 225.219 333.455 225.584C333.646 225.939 333.906 226.217 334.234 226.418C334.562 226.618 334.973 226.719 335.465 226.719C335.948 226.719 336.349 226.618 336.668 226.418C336.996 226.217 337.256 225.939 337.447 225.584C337.639 225.219 337.775 224.796 337.857 224.312C337.939 223.829 337.98 223.31 337.98 222.754V222.467C337.98 221.929 337.939 221.423 337.857 220.949C337.775 220.466 337.639 220.042 337.447 219.678C337.256 219.304 336.996 219.012 336.668 218.803C336.34 218.593 335.93 218.488 335.438 218.488C334.954 218.488 334.549 218.593 334.221 218.803C333.902 219.012 333.646 219.304 333.455 219.678C333.264 220.042 333.127 220.466 333.045 220.949C332.963 221.423 332.922 221.929 332.922 222.467ZM352.254 223.971H347.715L347.688 221.127H351.461C351.835 221.127 352.131 221.086 352.35 221.004C352.577 220.922 352.737 220.799 352.828 220.635C352.928 220.462 352.979 220.257 352.979 220.02C352.979 219.783 352.942 219.582 352.869 219.418C352.805 219.254 352.701 219.122 352.555 219.021C352.418 218.921 352.245 218.848 352.035 218.803C351.826 218.757 351.579 218.734 351.297 218.734H349.561V230H344.953V215.207H351.297C352.272 215.207 353.147 215.294 353.922 215.467C354.697 215.631 355.353 215.886 355.891 216.232C356.438 216.57 356.857 216.998 357.148 217.518C357.44 218.037 357.586 218.648 357.586 219.35C357.586 219.805 357.477 220.234 357.258 220.635C357.039 221.036 356.715 221.391 356.287 221.701C355.868 222.011 355.348 222.266 354.729 222.467C354.109 222.658 353.398 222.777 352.596 222.822L352.254 223.971ZM352.254 230H346.717L348.125 226.473H352.254C352.637 226.473 352.947 226.427 353.184 226.336C353.421 226.245 353.594 226.108 353.703 225.926C353.812 225.743 353.867 225.52 353.867 225.256C353.867 225.001 353.822 224.777 353.73 224.586C353.639 224.395 353.475 224.244 353.238 224.135C353.01 224.025 352.682 223.971 352.254 223.971H348.645L348.672 221.127H352.568L353.553 222.289C354.701 222.353 355.635 222.549 356.355 222.877C357.085 223.205 357.618 223.62 357.955 224.121C358.301 224.622 358.475 225.174 358.475 225.775C358.475 226.477 358.338 227.092 358.064 227.621C357.8 228.15 357.404 228.592 356.875 228.947C356.346 229.294 355.695 229.558 354.92 229.74C354.154 229.913 353.266 230 352.254 230ZM363.438 219.268H367.648C369.07 219.268 370.287 219.495 371.299 219.951C372.32 220.398 373.104 221.031 373.65 221.852C374.197 222.663 374.471 223.611 374.471 224.695C374.471 225.47 374.316 226.186 374.006 226.842C373.696 227.489 373.245 228.049 372.652 228.523C372.069 228.988 371.354 229.353 370.506 229.617C369.667 229.872 368.715 230 367.648 230H360.676V215.207H365.297V226.473H367.648C368.177 226.473 368.601 226.391 368.92 226.227C369.248 226.062 369.49 225.844 369.645 225.57C369.799 225.297 369.877 224.996 369.877 224.668C369.877 224.303 369.799 223.984 369.645 223.711C369.49 223.428 369.248 223.21 368.92 223.055C368.601 222.891 368.177 222.809 367.648 222.809H363.438V219.268ZM381.293 215.207V230H376.672V215.207H381.293ZM393.502 224.914L396.852 215.207H400.42L395.047 230H391.971L386.611 215.207H390.193L393.502 224.914ZM389.154 215.207V230H384.547V215.207H389.154ZM398.027 230V215.207H402.635V230H398.027ZM417.619 215.207V230H413.012V215.207H417.619ZM427.203 215.207L421.133 224.832H417.004L416.484 220.525H418.959L421.297 215.207H427.203ZM421.393 230L418.617 223.971L422.896 222.043L427.641 230H421.393ZM438.783 215.207V218.762H431.455V215.207H438.783ZM441.969 215.207V230H437.361V215.207H441.969ZM430.293 215.207H434.791L434.381 222.822C434.326 223.88 434.203 224.805 434.012 225.598C433.829 226.391 433.583 227.07 433.273 227.635C432.973 228.191 432.613 228.646 432.193 229.002C431.774 229.348 431.3 229.604 430.771 229.768C430.243 229.923 429.669 230 429.049 230H427.654L427.586 226.473L428.078 226.418C428.324 226.391 428.543 226.309 428.734 226.172C428.926 226.035 429.094 225.844 429.24 225.598C429.386 225.352 429.509 225.037 429.609 224.654C429.719 224.271 429.805 223.82 429.869 223.301C429.942 222.781 429.992 222.184 430.02 221.51L430.293 215.207ZM449.037 223.793L453.111 215.207H457.719V230H453.111V221.387L449.037 230H444.416V215.207H449.037V223.793ZM467.385 230.273C466.182 230.273 465.106 230.087 464.158 229.713C463.21 229.33 462.408 228.806 461.752 228.141C461.105 227.475 460.608 226.71 460.262 225.844C459.924 224.978 459.756 224.062 459.756 223.096V222.576C459.756 221.492 459.906 220.489 460.207 219.568C460.508 218.639 460.954 217.827 461.547 217.135C462.139 216.442 462.882 215.904 463.775 215.521C464.669 215.13 465.708 214.934 466.893 214.934C467.941 214.934 468.88 215.102 469.709 215.439C470.538 215.777 471.24 216.26 471.814 216.889C472.398 217.518 472.84 218.279 473.141 219.172C473.451 220.065 473.605 221.068 473.605 222.18V224.053H461.52V221.168H469.107V220.812C469.117 220.32 469.03 219.901 468.848 219.555C468.674 219.208 468.419 218.944 468.082 218.762C467.745 218.579 467.335 218.488 466.852 218.488C466.35 218.488 465.936 218.598 465.607 218.816C465.288 219.035 465.038 219.336 464.855 219.719C464.682 220.092 464.559 220.525 464.486 221.018C464.413 221.51 464.377 222.029 464.377 222.576V223.096C464.377 223.643 464.45 224.139 464.596 224.586C464.751 225.033 464.969 225.415 465.252 225.734C465.544 226.044 465.89 226.286 466.291 226.459C466.701 226.632 467.166 226.719 467.686 226.719C468.314 226.719 468.934 226.6 469.545 226.363C470.156 226.126 470.68 225.734 471.117 225.188L473.209 227.676C472.908 228.104 472.48 228.519 471.924 228.92C471.377 229.321 470.721 229.649 469.955 229.904C469.189 230.15 468.333 230.273 467.385 230.273ZM485.705 220.977V224.518H478.322V220.977H485.705ZM480.004 215.207V230H475.396V215.207H480.004ZM488.658 215.207V230H484.037V215.207H488.658ZM499.486 215.207V230H494.865V215.207H499.486ZM504.162 215.207V218.734H490.271V215.207H504.162ZM513.35 226.281V220.184C513.35 219.764 513.29 219.404 513.172 219.104C513.053 218.803 512.867 218.57 512.611 218.406C512.356 218.233 512.014 218.146 511.586 218.146C511.24 218.146 510.943 218.206 510.697 218.324C510.451 218.443 510.264 218.62 510.137 218.857C510.009 219.094 509.945 219.395 509.945 219.76H505.338C505.338 219.076 505.488 218.443 505.789 217.859C506.099 217.267 506.536 216.752 507.102 216.314C507.676 215.877 508.359 215.54 509.152 215.303C509.954 215.057 510.848 214.934 511.832 214.934C513.008 214.934 514.056 215.13 514.977 215.521C515.906 215.913 516.64 216.501 517.178 217.285C517.715 218.06 517.984 219.035 517.984 220.211V226.268C517.984 227.234 518.039 227.967 518.148 228.469C518.258 228.961 518.413 229.394 518.613 229.768V230H513.992C513.773 229.544 513.609 228.988 513.5 228.332C513.4 227.667 513.35 226.983 513.35 226.281ZM513.91 220.963L513.938 223.424H511.9C511.472 223.424 511.107 223.483 510.807 223.602C510.515 223.72 510.278 223.884 510.096 224.094C509.923 224.294 509.795 224.522 509.713 224.777C509.64 225.033 509.604 225.301 509.604 225.584C509.604 225.857 509.667 226.104 509.795 226.322C509.932 226.532 510.114 226.696 510.342 226.814C510.57 226.933 510.825 226.992 511.107 226.992C511.618 226.992 512.051 226.896 512.406 226.705C512.771 226.505 513.049 226.263 513.24 225.98C513.432 225.698 513.527 225.434 513.527 225.188L514.539 227.074C514.357 227.439 514.147 227.808 513.91 228.182C513.682 228.555 513.395 228.902 513.049 229.221C512.712 229.531 512.297 229.786 511.805 229.986C511.312 230.178 510.715 230.273 510.014 230.273C509.102 230.273 508.264 230.087 507.498 229.713C506.742 229.339 506.135 228.82 505.68 228.154C505.224 227.48 504.996 226.705 504.996 225.83C504.996 225.064 505.133 224.381 505.406 223.779C505.689 223.178 506.113 222.667 506.678 222.248C507.243 221.829 507.963 221.51 508.838 221.291C509.713 221.072 510.743 220.963 511.928 220.963H513.91ZM529.811 224.914L533.16 215.207H536.729L531.355 230H528.279L522.92 215.207H526.502L529.811 224.914ZM525.463 215.207V230H520.855V215.207H525.463ZM534.336 230V215.207H538.943V230H534.336Z" fill="#263238"/>
</svg>
