<svg width="750" height="350" viewBox="0 0 750 350" fill="none" xmlns="http://www.w3.org/2000/svg">
<rect width="750" height="350" rx="5" fill="#90AFFF"/>
<path d="M295.188 124.75V193H279.391V142.562L263.828 147.109V135.109L293.734 124.75H295.188ZM363.297 152.641V165.109C363.297 170.016 362.719 174.281 361.562 177.906C360.438 181.531 358.812 184.531 356.688 186.906C354.594 189.281 352.094 191.047 349.188 192.203C346.281 193.359 343.078 193.938 339.578 193.938C336.766 193.938 334.141 193.578 331.703 192.859C329.266 192.109 327.062 190.984 325.094 189.484C323.156 187.953 321.484 186.047 320.078 183.766C318.672 181.484 317.594 178.797 316.844 175.703C316.094 172.578 315.719 169.047 315.719 165.109V152.641C315.719 147.703 316.281 143.438 317.406 139.844C318.562 136.219 320.203 133.219 322.328 130.844C324.453 128.469 326.969 126.703 329.875 125.547C332.781 124.391 335.984 123.812 339.484 123.812C342.297 123.812 344.906 124.188 347.312 124.938C349.75 125.656 351.953 126.781 353.922 128.312C355.891 129.812 357.562 131.703 358.938 133.984C360.344 136.266 361.422 138.969 362.172 142.094C362.922 145.188 363.297 148.703 363.297 152.641ZM347.5 167.031V150.625C347.5 148.438 347.375 146.531 347.125 144.906C346.906 143.281 346.562 141.906 346.094 140.781C345.656 139.656 345.109 138.75 344.453 138.062C343.797 137.344 343.047 136.828 342.203 136.516C341.391 136.172 340.484 136 339.484 136C338.234 136 337.109 136.266 336.109 136.797C335.141 137.297 334.312 138.109 333.625 139.234C332.938 140.359 332.406 141.859 332.031 143.734C331.688 145.609 331.516 147.906 331.516 150.625V167.031C331.516 169.25 331.625 171.188 331.844 172.844C332.094 174.469 332.438 175.859 332.875 177.016C333.344 178.141 333.906 179.062 334.562 179.781C335.219 180.469 335.969 180.969 336.812 181.281C337.656 181.594 338.578 181.75 339.578 181.75C340.797 181.75 341.891 181.5 342.859 181C343.828 180.5 344.656 179.688 345.344 178.562C346.062 177.406 346.594 175.891 346.938 174.016C347.312 172.109 347.5 169.781 347.5 167.031ZM418.984 152.641V165.109C418.984 170.016 418.406 174.281 417.25 177.906C416.125 181.531 414.5 184.531 412.375 186.906C410.281 189.281 407.781 191.047 404.875 192.203C401.969 193.359 398.766 193.938 395.266 193.938C392.453 193.938 389.828 193.578 387.391 192.859C384.953 192.109 382.75 190.984 380.781 189.484C378.844 187.953 377.172 186.047 375.766 183.766C374.359 181.484 373.281 178.797 372.531 175.703C371.781 172.578 371.406 169.047 371.406 165.109V152.641C371.406 147.703 371.969 143.438 373.094 139.844C374.25 136.219 375.891 133.219 378.016 130.844C380.141 128.469 382.656 126.703 385.562 125.547C388.469 124.391 391.672 123.812 395.172 123.812C397.984 123.812 400.594 124.188 403 124.938C405.438 125.656 407.641 126.781 409.609 128.312C411.578 129.812 413.25 131.703 414.625 133.984C416.031 136.266 417.109 138.969 417.859 142.094C418.609 145.188 418.984 148.703 418.984 152.641ZM403.188 167.031V150.625C403.188 148.438 403.062 146.531 402.812 144.906C402.594 143.281 402.25 141.906 401.781 140.781C401.344 139.656 400.797 138.75 400.141 138.062C399.484 137.344 398.734 136.828 397.891 136.516C397.078 136.172 396.172 136 395.172 136C393.922 136 392.797 136.266 391.797 136.797C390.828 137.297 390 138.109 389.312 139.234C388.625 140.359 388.094 141.859 387.719 143.734C387.375 145.609 387.203 147.906 387.203 150.625V167.031C387.203 169.25 387.312 171.188 387.531 172.844C387.781 174.469 388.125 175.859 388.562 177.016C389.031 178.141 389.594 179.062 390.25 179.781C390.906 180.469 391.656 180.969 392.5 181.281C393.344 181.594 394.266 181.75 395.266 181.75C396.484 181.75 397.578 181.5 398.547 181C399.516 180.5 400.344 179.688 401.031 178.562C401.75 177.406 402.281 175.891 402.625 174.016C403 172.109 403.188 169.781 403.188 167.031ZM427.328 141.484V137.875C427.328 135.281 427.891 132.922 429.016 130.797C430.141 128.672 431.828 126.969 434.078 125.688C436.328 124.406 439.125 123.766 442.469 123.766C445.906 123.766 448.75 124.406 451 125.688C453.25 126.969 454.922 128.672 456.016 130.797C457.141 132.922 457.703 135.281 457.703 137.875V141.484C457.703 144.016 457.141 146.344 456.016 148.469C454.922 150.594 453.25 152.297 451 153.578C448.781 154.859 445.984 155.5 442.609 155.5C439.203 155.5 436.375 154.859 434.125 153.578C431.875 152.297 430.172 150.594 429.016 148.469C427.891 146.344 427.328 144.016 427.328 141.484ZM437.453 137.875V141.484C437.453 142.422 437.641 143.312 438.016 144.156C438.391 145 438.953 145.688 439.703 146.219C440.484 146.719 441.438 146.969 442.562 146.969C443.719 146.969 444.656 146.719 445.375 146.219C446.094 145.688 446.625 145 446.969 144.156C447.344 143.312 447.531 142.422 447.531 141.484V137.875C447.531 136.875 447.344 135.953 446.969 135.109C446.625 134.266 446.078 133.594 445.328 133.094C444.578 132.562 443.625 132.297 442.469 132.297C441.375 132.297 440.453 132.562 439.703 133.094C438.953 133.594 438.391 134.266 438.016 135.109C437.641 135.953 437.453 136.875 437.453 137.875ZM459.719 179.875V176.266C459.719 173.703 460.281 171.359 461.406 169.234C462.562 167.109 464.266 165.406 466.516 164.125C468.797 162.844 471.609 162.203 474.953 162.203C478.391 162.203 481.219 162.844 483.438 164.125C485.688 165.406 487.359 167.109 488.453 169.234C489.578 171.359 490.141 173.703 490.141 176.266V179.875C490.141 182.438 489.578 184.781 488.453 186.906C487.359 189.031 485.703 190.734 483.484 192.016C481.266 193.297 478.469 193.938 475.094 193.938C471.688 193.938 468.844 193.297 466.562 192.016C464.281 190.734 462.562 189.031 461.406 186.906C460.281 184.781 459.719 182.438 459.719 179.875ZM469.891 176.266V179.875C469.891 180.844 470.125 181.75 470.594 182.594C471.062 183.438 471.688 184.125 472.469 184.656C473.25 185.156 474.109 185.406 475.047 185.406C476.484 185.406 477.547 185.156 478.234 184.656C478.953 184.125 479.422 183.438 479.641 182.594C479.891 181.75 480.016 180.844 480.016 179.875V176.266C480.016 175.297 479.828 174.391 479.453 173.547C479.078 172.703 478.516 172.031 477.766 171.531C477.016 171 476.078 170.734 474.953 170.734C473.828 170.734 472.891 171 472.141 171.531C471.391 172.031 470.828 172.703 470.453 173.547C470.078 174.391 469.891 175.297 469.891 176.266ZM478.891 134.547L445.562 187.891L438.203 184.188L471.531 130.844L478.891 134.547Z" fill="#263238"/>
<path d="M213.914 223.971H209.375L209.348 221.127H213.121C213.495 221.127 213.791 221.086 214.01 221.004C214.238 220.922 214.397 220.799 214.488 220.635C214.589 220.462 214.639 220.257 214.639 220.02C214.639 219.783 214.602 219.582 214.529 219.418C214.465 219.254 214.361 219.122 214.215 219.021C214.078 218.921 213.905 218.848 213.695 218.803C213.486 218.757 213.24 218.734 212.957 218.734H211.221V230H206.613V215.207H212.957C213.932 215.207 214.807 215.294 215.582 215.467C216.357 215.631 217.013 215.886 217.551 216.232C218.098 216.57 218.517 216.998 218.809 217.518C219.1 218.037 219.246 218.648 219.246 219.35C219.246 219.805 219.137 220.234 218.918 220.635C218.699 221.036 218.376 221.391 217.947 221.701C217.528 222.011 217.008 222.266 216.389 222.467C215.769 222.658 215.058 222.777 214.256 222.822L213.914 223.971ZM213.914 230H208.377L209.785 226.473H213.914C214.297 226.473 214.607 226.427 214.844 226.336C215.081 226.245 215.254 226.108 215.363 225.926C215.473 225.743 215.527 225.52 215.527 225.256C215.527 225.001 215.482 224.777 215.391 224.586C215.299 224.395 215.135 224.244 214.898 224.135C214.671 224.025 214.342 223.971 213.914 223.971H210.305L210.332 221.127H214.229L215.213 222.289C216.361 222.353 217.296 222.549 218.016 222.877C218.745 223.205 219.278 223.62 219.615 224.121C219.962 224.622 220.135 225.174 220.135 225.775C220.135 226.477 219.998 227.092 219.725 227.621C219.46 228.15 219.064 228.592 218.535 228.947C218.007 229.294 217.355 229.558 216.58 229.74C215.814 229.913 214.926 230 213.914 230ZM225.098 219.268H229.309C230.73 219.268 231.947 219.495 232.959 219.951C233.98 220.398 234.764 221.031 235.311 221.852C235.857 222.663 236.131 223.611 236.131 224.695C236.131 225.47 235.976 226.186 235.666 226.842C235.356 227.489 234.905 228.049 234.312 228.523C233.729 228.988 233.014 229.353 232.166 229.617C231.327 229.872 230.375 230 229.309 230H222.336V215.207H226.957V226.473H229.309C229.837 226.473 230.261 226.391 230.58 226.227C230.908 226.062 231.15 225.844 231.305 225.57C231.46 225.297 231.537 224.996 231.537 224.668C231.537 224.303 231.46 223.984 231.305 223.711C231.15 223.428 230.908 223.21 230.58 223.055C230.261 222.891 229.837 222.809 229.309 222.809H225.098V219.268ZM242.953 215.207V230H238.332V215.207H242.953ZM252.291 222.754V222.467C252.291 221.382 252.446 220.384 252.756 219.473C253.066 218.552 253.521 217.755 254.123 217.08C254.725 216.406 255.467 215.882 256.352 215.508C257.236 215.125 258.257 214.934 259.414 214.934C260.581 214.934 261.606 215.125 262.49 215.508C263.383 215.882 264.131 216.406 264.732 217.08C265.334 217.755 265.79 218.552 266.1 219.473C266.41 220.384 266.564 221.382 266.564 222.467V222.754C266.564 223.829 266.41 224.827 266.1 225.748C265.79 226.66 265.334 227.457 264.732 228.141C264.131 228.815 263.388 229.339 262.504 229.713C261.62 230.087 260.599 230.273 259.441 230.273C258.284 230.273 257.258 230.087 256.365 229.713C255.472 229.339 254.725 228.815 254.123 228.141C253.521 227.457 253.066 226.66 252.756 225.748C252.446 224.827 252.291 223.829 252.291 222.754ZM256.898 222.467V222.754C256.898 223.31 256.939 223.829 257.021 224.312C257.104 224.796 257.24 225.219 257.432 225.584C257.623 225.939 257.883 226.217 258.211 226.418C258.539 226.618 258.949 226.719 259.441 226.719C259.924 226.719 260.326 226.618 260.645 226.418C260.973 226.217 261.232 225.939 261.424 225.584C261.615 225.219 261.752 224.796 261.834 224.312C261.916 223.829 261.957 223.31 261.957 222.754V222.467C261.957 221.929 261.916 221.423 261.834 220.949C261.752 220.466 261.615 220.042 261.424 219.678C261.232 219.304 260.973 219.012 260.645 218.803C260.316 218.593 259.906 218.488 259.414 218.488C258.931 218.488 258.525 218.593 258.197 218.803C257.878 219.012 257.623 219.304 257.432 219.678C257.24 220.042 257.104 220.466 257.021 220.949C256.939 221.423 256.898 221.929 256.898 222.467ZM274.863 226.719C275.292 226.719 275.656 226.641 275.957 226.486C276.267 226.322 276.499 226.094 276.654 225.803C276.818 225.502 276.896 225.142 276.887 224.723H281.221C281.23 225.835 280.956 226.81 280.4 227.648C279.854 228.478 279.106 229.125 278.158 229.59C277.219 230.046 276.158 230.273 274.973 230.273C273.815 230.273 272.803 230.087 271.938 229.713C271.072 229.33 270.347 228.801 269.764 228.127C269.189 227.443 268.757 226.646 268.465 225.734C268.182 224.823 268.041 223.834 268.041 222.768V222.453C268.041 221.387 268.182 220.398 268.465 219.486C268.757 218.566 269.189 217.768 269.764 217.094C270.347 216.41 271.067 215.882 271.924 215.508C272.79 215.125 273.797 214.934 274.945 214.934C276.176 214.934 277.26 215.166 278.199 215.631C279.147 216.096 279.89 216.77 280.428 217.654C280.965 218.538 281.23 219.609 281.221 220.867H276.887C276.896 220.421 276.827 220.02 276.682 219.664C276.536 219.309 276.308 219.026 275.998 218.816C275.697 218.598 275.31 218.488 274.836 218.488C274.362 218.488 273.979 218.593 273.688 218.803C273.396 219.012 273.173 219.304 273.018 219.678C272.872 220.042 272.771 220.462 272.717 220.936C272.671 221.41 272.648 221.915 272.648 222.453V222.768C272.648 223.314 272.671 223.829 272.717 224.312C272.771 224.786 272.876 225.206 273.031 225.57C273.186 225.926 273.41 226.208 273.701 226.418C273.993 226.618 274.38 226.719 274.863 226.719ZM291.475 215.207V230H286.854V215.207H291.475ZM296.15 215.207V218.734H282.26V215.207H296.15ZM305.338 226.281V220.184C305.338 219.764 305.279 219.404 305.16 219.104C305.042 218.803 304.855 218.57 304.6 218.406C304.344 218.233 304.003 218.146 303.574 218.146C303.228 218.146 302.932 218.206 302.686 218.324C302.439 218.443 302.253 218.62 302.125 218.857C301.997 219.094 301.934 219.395 301.934 219.76H297.326C297.326 219.076 297.477 218.443 297.777 217.859C298.087 217.267 298.525 216.752 299.09 216.314C299.664 215.877 300.348 215.54 301.141 215.303C301.943 215.057 302.836 214.934 303.82 214.934C304.996 214.934 306.044 215.13 306.965 215.521C307.895 215.913 308.628 216.501 309.166 217.285C309.704 218.06 309.973 219.035 309.973 220.211V226.268C309.973 227.234 310.027 227.967 310.137 228.469C310.246 228.961 310.401 229.394 310.602 229.768V230H305.98C305.762 229.544 305.598 228.988 305.488 228.332C305.388 227.667 305.338 226.983 305.338 226.281ZM305.898 220.963L305.926 223.424H303.889C303.46 223.424 303.096 223.483 302.795 223.602C302.503 223.72 302.266 223.884 302.084 224.094C301.911 224.294 301.783 224.522 301.701 224.777C301.628 225.033 301.592 225.301 301.592 225.584C301.592 225.857 301.656 226.104 301.783 226.322C301.92 226.532 302.102 226.696 302.33 226.814C302.558 226.933 302.813 226.992 303.096 226.992C303.606 226.992 304.039 226.896 304.395 226.705C304.759 226.505 305.037 226.263 305.229 225.98C305.42 225.698 305.516 225.434 305.516 225.188L306.527 227.074C306.345 227.439 306.135 227.808 305.898 228.182C305.671 228.555 305.383 228.902 305.037 229.221C304.7 229.531 304.285 229.786 303.793 229.986C303.301 230.178 302.704 230.273 302.002 230.273C301.09 230.273 300.252 230.087 299.486 229.713C298.73 229.339 298.124 228.82 297.668 228.154C297.212 227.48 296.984 226.705 296.984 225.83C296.984 225.064 297.121 224.381 297.395 223.779C297.677 223.178 298.101 222.667 298.666 222.248C299.231 221.829 299.951 221.51 300.826 221.291C301.701 221.072 302.731 220.963 303.916 220.963H305.898ZM322.756 220.977V224.518H315.373V220.977H322.756ZM317.055 215.207V230H312.447V215.207H317.055ZM325.709 215.207V230H321.088V215.207H325.709ZM335.416 230.273C334.213 230.273 333.137 230.087 332.189 229.713C331.242 229.33 330.439 228.806 329.783 228.141C329.136 227.475 328.639 226.71 328.293 225.844C327.956 224.978 327.787 224.062 327.787 223.096V222.576C327.787 221.492 327.938 220.489 328.238 219.568C328.539 218.639 328.986 217.827 329.578 217.135C330.171 216.442 330.913 215.904 331.807 215.521C332.7 215.13 333.739 214.934 334.924 214.934C335.972 214.934 336.911 215.102 337.74 215.439C338.57 215.777 339.271 216.26 339.846 216.889C340.429 217.518 340.871 218.279 341.172 219.172C341.482 220.065 341.637 221.068 341.637 222.18V224.053H329.551V221.168H337.139V220.812C337.148 220.32 337.061 219.901 336.879 219.555C336.706 219.208 336.451 218.944 336.113 218.762C335.776 218.579 335.366 218.488 334.883 218.488C334.382 218.488 333.967 218.598 333.639 218.816C333.32 219.035 333.069 219.336 332.887 219.719C332.714 220.092 332.59 220.525 332.518 221.018C332.445 221.51 332.408 222.029 332.408 222.576V223.096C332.408 223.643 332.481 224.139 332.627 224.586C332.782 225.033 333.001 225.415 333.283 225.734C333.575 226.044 333.921 226.286 334.322 226.459C334.732 226.632 335.197 226.719 335.717 226.719C336.346 226.719 336.965 226.6 337.576 226.363C338.187 226.126 338.711 225.734 339.148 225.188L341.24 227.676C340.939 228.104 340.511 228.519 339.955 228.92C339.408 229.321 338.752 229.649 337.986 229.904C337.221 230.15 336.364 230.273 335.416 230.273ZM351.631 215.207V230H347.01V215.207H351.631ZM356.307 215.207V218.734H342.416V215.207H356.307ZM364.318 230.273C363.115 230.273 362.04 230.087 361.092 229.713C360.144 229.33 359.342 228.806 358.686 228.141C358.038 227.475 357.542 226.71 357.195 225.844C356.858 224.978 356.689 224.062 356.689 223.096V222.576C356.689 221.492 356.84 220.489 357.141 219.568C357.441 218.639 357.888 217.827 358.48 217.135C359.073 216.442 359.816 215.904 360.709 215.521C361.602 215.13 362.641 214.934 363.826 214.934C364.874 214.934 365.813 215.102 366.643 215.439C367.472 215.777 368.174 216.26 368.748 216.889C369.331 217.518 369.773 218.279 370.074 219.172C370.384 220.065 370.539 221.068 370.539 222.18V224.053H358.453V221.168H366.041V220.812C366.05 220.32 365.964 219.901 365.781 219.555C365.608 219.208 365.353 218.944 365.016 218.762C364.678 218.579 364.268 218.488 363.785 218.488C363.284 218.488 362.869 218.598 362.541 218.816C362.222 219.035 361.971 219.336 361.789 219.719C361.616 220.092 361.493 220.525 361.42 221.018C361.347 221.51 361.311 222.029 361.311 222.576V223.096C361.311 223.643 361.383 224.139 361.529 224.586C361.684 225.033 361.903 225.415 362.186 225.734C362.477 226.044 362.824 226.286 363.225 226.459C363.635 226.632 364.1 226.719 364.619 226.719C365.248 226.719 365.868 226.6 366.479 226.363C367.089 226.126 367.613 225.734 368.051 225.188L370.143 227.676C369.842 228.104 369.413 228.519 368.857 228.92C368.311 229.321 367.654 229.649 366.889 229.904C366.123 230.15 365.266 230.273 364.318 230.273ZM378.66 226.719C379.089 226.719 379.453 226.641 379.754 226.486C380.064 226.322 380.296 226.094 380.451 225.803C380.615 225.502 380.693 225.142 380.684 224.723H385.018C385.027 225.835 384.753 226.81 384.197 227.648C383.65 228.478 382.903 229.125 381.955 229.59C381.016 230.046 379.954 230.273 378.77 230.273C377.612 230.273 376.6 230.087 375.734 229.713C374.868 229.33 374.144 228.801 373.561 228.127C372.986 227.443 372.553 226.646 372.262 225.734C371.979 224.823 371.838 223.834 371.838 222.768V222.453C371.838 221.387 371.979 220.398 372.262 219.486C372.553 218.566 372.986 217.768 373.561 217.094C374.144 216.41 374.864 215.882 375.721 215.508C376.587 215.125 377.594 214.934 378.742 214.934C379.973 214.934 381.057 215.166 381.996 215.631C382.944 216.096 383.687 216.77 384.225 217.654C384.762 218.538 385.027 219.609 385.018 220.867H380.684C380.693 220.421 380.624 220.02 380.479 219.664C380.333 219.309 380.105 219.026 379.795 218.816C379.494 218.598 379.107 218.488 378.633 218.488C378.159 218.488 377.776 218.593 377.484 218.803C377.193 219.012 376.969 219.304 376.814 219.678C376.669 220.042 376.568 220.462 376.514 220.936C376.468 221.41 376.445 221.915 376.445 222.453V222.768C376.445 223.314 376.468 223.829 376.514 224.312C376.568 224.786 376.673 225.206 376.828 225.57C376.983 225.926 377.206 226.208 377.498 226.418C377.79 226.618 378.177 226.719 378.66 226.719ZM390.062 219.268H394.273C395.695 219.268 396.912 219.495 397.924 219.951C398.945 220.398 399.729 221.031 400.275 221.852C400.822 222.663 401.096 223.611 401.096 224.695C401.096 225.47 400.941 226.186 400.631 226.842C400.321 227.489 399.87 228.049 399.277 228.523C398.694 228.988 397.979 229.353 397.131 229.617C396.292 229.872 395.34 230 394.273 230H387.301V215.207H391.922V226.473H394.273C394.802 226.473 395.226 226.391 395.545 226.227C395.873 226.062 396.115 225.844 396.27 225.57C396.424 225.297 396.502 224.996 396.502 224.668C396.502 224.303 396.424 223.984 396.27 223.711C396.115 223.428 395.873 223.21 395.545 223.055C395.226 222.891 394.802 222.809 394.273 222.809H390.062V219.268ZM412.498 215.207H417.105L417.037 219.869C417.01 221.546 416.814 222.986 416.449 224.189C416.094 225.383 415.611 226.382 415 227.184C414.389 227.977 413.688 228.601 412.895 229.057C412.111 229.503 411.281 229.818 410.406 230H409.914L409.818 226.5L410.174 226.445C410.721 225.898 411.145 225.379 411.445 224.887C411.755 224.385 411.974 223.884 412.102 223.383C412.238 222.882 412.325 222.348 412.361 221.783C412.398 221.209 412.421 220.571 412.43 219.869L412.498 215.207ZM413.783 215.207H424.01V230H419.416V218.762H413.783V215.207ZM408.861 226.445H426.225V234.484H421.617V230H413.592V234.484H408.861V226.445ZM427.236 222.754V222.467C427.236 221.382 427.391 220.384 427.701 219.473C428.011 218.552 428.467 217.755 429.068 217.08C429.67 216.406 430.413 215.882 431.297 215.508C432.181 215.125 433.202 214.934 434.359 214.934C435.526 214.934 436.551 215.125 437.436 215.508C438.329 215.882 439.076 216.406 439.678 217.08C440.279 217.755 440.735 218.552 441.045 219.473C441.355 220.384 441.51 221.382 441.51 222.467V222.754C441.51 223.829 441.355 224.827 441.045 225.748C440.735 226.66 440.279 227.457 439.678 228.141C439.076 228.815 438.333 229.339 437.449 229.713C436.565 230.087 435.544 230.273 434.387 230.273C433.229 230.273 432.204 230.087 431.311 229.713C430.417 229.339 429.67 228.815 429.068 228.141C428.467 227.457 428.011 226.66 427.701 225.748C427.391 224.827 427.236 223.829 427.236 222.754ZM431.844 222.467V222.754C431.844 223.31 431.885 223.829 431.967 224.312C432.049 224.796 432.186 225.219 432.377 225.584C432.568 225.939 432.828 226.217 433.156 226.418C433.484 226.618 433.895 226.719 434.387 226.719C434.87 226.719 435.271 226.618 435.59 226.418C435.918 226.217 436.178 225.939 436.369 225.584C436.561 225.219 436.697 224.796 436.779 224.312C436.861 223.829 436.902 223.31 436.902 222.754V222.467C436.902 221.929 436.861 221.423 436.779 220.949C436.697 220.466 436.561 220.042 436.369 219.678C436.178 219.304 435.918 219.012 435.59 218.803C435.262 218.593 434.852 218.488 434.359 218.488C433.876 218.488 433.471 218.593 433.143 218.803C432.824 219.012 432.568 219.304 432.377 219.678C432.186 220.042 432.049 220.466 431.967 220.949C431.885 221.423 431.844 221.929 431.844 222.467ZM451.176 223.971H446.637L446.609 221.127H450.383C450.757 221.127 451.053 221.086 451.271 221.004C451.499 220.922 451.659 220.799 451.75 220.635C451.85 220.462 451.9 220.257 451.9 220.02C451.9 219.783 451.864 219.582 451.791 219.418C451.727 219.254 451.622 219.122 451.477 219.021C451.34 218.921 451.167 218.848 450.957 218.803C450.747 218.757 450.501 218.734 450.219 218.734H448.482V230H443.875V215.207H450.219C451.194 215.207 452.069 215.294 452.844 215.467C453.618 215.631 454.275 215.886 454.812 216.232C455.359 216.57 455.779 216.998 456.07 217.518C456.362 218.037 456.508 218.648 456.508 219.35C456.508 219.805 456.398 220.234 456.18 220.635C455.961 221.036 455.637 221.391 455.209 221.701C454.79 222.011 454.27 222.266 453.65 222.467C453.031 222.658 452.32 222.777 451.518 222.822L451.176 223.971ZM451.176 230H445.639L447.047 226.473H451.176C451.559 226.473 451.868 226.427 452.105 226.336C452.342 226.245 452.516 226.108 452.625 225.926C452.734 225.743 452.789 225.52 452.789 225.256C452.789 225.001 452.743 224.777 452.652 224.586C452.561 224.395 452.397 224.244 452.16 224.135C451.932 224.025 451.604 223.971 451.176 223.971H447.566L447.594 221.127H451.49L452.475 222.289C453.623 222.353 454.557 222.549 455.277 222.877C456.007 223.205 456.54 223.62 456.877 224.121C457.223 224.622 457.396 225.174 457.396 225.775C457.396 226.477 457.26 227.092 456.986 227.621C456.722 228.15 456.326 228.592 455.797 228.947C455.268 229.294 454.617 229.558 453.842 229.74C453.076 229.913 452.188 230 451.176 230ZM458.709 222.754V222.467C458.709 221.382 458.864 220.384 459.174 219.473C459.484 218.552 459.939 217.755 460.541 217.08C461.143 216.406 461.885 215.882 462.77 215.508C463.654 215.125 464.674 214.934 465.832 214.934C466.999 214.934 468.024 215.125 468.908 215.508C469.801 215.882 470.549 216.406 471.15 217.08C471.752 217.755 472.208 218.552 472.518 219.473C472.827 220.384 472.982 221.382 472.982 222.467V222.754C472.982 223.829 472.827 224.827 472.518 225.748C472.208 226.66 471.752 227.457 471.15 228.141C470.549 228.815 469.806 229.339 468.922 229.713C468.038 230.087 467.017 230.273 465.859 230.273C464.702 230.273 463.676 230.087 462.783 229.713C461.89 229.339 461.143 228.815 460.541 228.141C459.939 227.457 459.484 226.66 459.174 225.748C458.864 224.827 458.709 223.829 458.709 222.754ZM463.316 222.467V222.754C463.316 223.31 463.357 223.829 463.439 224.312C463.521 224.796 463.658 225.219 463.85 225.584C464.041 225.939 464.301 226.217 464.629 226.418C464.957 226.618 465.367 226.719 465.859 226.719C466.342 226.719 466.743 226.618 467.062 226.418C467.391 226.217 467.65 225.939 467.842 225.584C468.033 225.219 468.17 224.796 468.252 224.312C468.334 223.829 468.375 223.31 468.375 222.754V222.467C468.375 221.929 468.334 221.423 468.252 220.949C468.17 220.466 468.033 220.042 467.842 219.678C467.65 219.304 467.391 219.012 467.062 218.803C466.734 218.593 466.324 218.488 465.832 218.488C465.349 218.488 464.943 218.593 464.615 218.803C464.296 219.012 464.041 219.304 463.85 219.678C463.658 220.042 463.521 220.466 463.439 220.949C463.357 221.423 463.316 221.929 463.316 222.467ZM484.85 215.207V218.762H477.521V215.207H484.85ZM488.035 215.207V230H483.428V215.207H488.035ZM476.359 215.207H480.857L480.447 222.822C480.393 223.88 480.27 224.805 480.078 225.598C479.896 226.391 479.65 227.07 479.34 227.635C479.039 228.191 478.679 228.646 478.26 229.002C477.84 229.348 477.367 229.604 476.838 229.768C476.309 229.923 475.735 230 475.115 230H473.721L473.652 226.473L474.145 226.418C474.391 226.391 474.609 226.309 474.801 226.172C474.992 226.035 475.161 225.844 475.307 225.598C475.452 225.352 475.576 225.037 475.676 224.654C475.785 224.271 475.872 223.82 475.936 223.301C476.008 222.781 476.059 222.184 476.086 221.51L476.359 215.207ZM493.641 219.268H497.852C499.273 219.268 500.49 219.495 501.502 219.951C502.523 220.398 503.307 221.031 503.854 221.852C504.4 222.663 504.674 223.611 504.674 224.695C504.674 225.47 504.519 226.186 504.209 226.842C503.899 227.489 503.448 228.049 502.855 228.523C502.272 228.988 501.557 229.353 500.709 229.617C499.87 229.872 498.918 230 497.852 230H490.879V215.207H495.5V226.473H497.852C498.38 226.473 498.804 226.391 499.123 226.227C499.451 226.062 499.693 225.844 499.848 225.57C500.003 225.297 500.08 224.996 500.08 224.668C500.08 224.303 500.003 223.984 499.848 223.711C499.693 223.428 499.451 223.21 499.123 223.055C498.804 222.891 498.38 222.809 497.852 222.809H493.641V219.268ZM516.623 220.977V224.518H509.24V220.977H516.623ZM510.922 215.207V230H506.314V215.207H510.922ZM519.576 215.207V230H514.955V215.207H519.576ZM525.195 219.268H529.406C530.828 219.268 532.045 219.495 533.057 219.951C534.077 220.398 534.861 221.031 535.408 221.852C535.955 222.663 536.229 223.611 536.229 224.695C536.229 225.47 536.074 226.186 535.764 226.842C535.454 227.489 535.003 228.049 534.41 228.523C533.827 228.988 533.111 229.353 532.264 229.617C531.425 229.872 530.473 230 529.406 230H522.434V215.207H527.055V226.473H529.406C529.935 226.473 530.359 226.391 530.678 226.227C531.006 226.062 531.247 225.844 531.402 225.57C531.557 225.297 531.635 224.996 531.635 224.668C531.635 224.303 531.557 223.984 531.402 223.711C531.247 223.428 531.006 223.21 530.678 223.055C530.359 222.891 529.935 222.809 529.406 222.809H525.195V219.268ZM543.051 215.207V230H538.43V215.207H543.051Z" fill="#263238"/>
</svg>
